Patient4_TMGait_0pt3_03_right_17_GRF.mot
version=1
nRows=65
nColumns=19
inDegrees=no
endheader
time	F1x	F1y	F1z	M1x	M1y	M1z	F2x	F2y	F2z	M2x	M2y	M2z	EC1x	EC1y	EC1z	EC2x	EC2y	EC2z
32.18	12.8094	715.5831	52.942	-186.9163	-32.9589	525.5597	-4.3827	13.8495	-0.96395	5.8621	0.58336	6.8605	-0.0592	0.0182	-0.0073	-0.0462	0.0165	0.9585
32.1979	10.574	733.3218	55.1421	-191.3453	-35.0787	538.6505	-3.6815	11.0332	-0.90344	4.6949	0.92017	5.9521	-0.0592	0.0182	-0.0073	-0.0462	0.0165	0.9585
32.2157	8.1917	754.7489	57.7268	-196.6147	-37.4342	554.1941	-2.8447	8.208	-0.75221	3.5106	1.0285	4.8985	-0.0592	0.0182	-0.0073	-0.0462	0.0165	0.9585
32.2336	5.9198	778.6379	60.5301	-202.4192	-39.8221	571.1854	-1.9906	5.7381	-0.55639	2.4631	0.95905	3.8961	-0.0592	0.0182	-0.0073	-0.0462	0.0165	0.9585
32.2514	4.0354	803.1749	63.3296	-208.3243	-42.0033	588.2022	-1.2457	3.8226	-0.36108	1.6402	0.80101	3.0773	-0.0592	0.0182	-0.0073	-0.0462	0.0165	0.9585
32.2693	2.8031	826.1768	65.8703	-213.8103	-43.7267	603.5788	-0.66912	2.4798	-0.19446	1.0547	0.6205	2.4787	-0.0592	0.0182	-0.0073	-0.0462	0.0165	0.9585
32.2871	2.396	845.3171	67.9045	-218.315	-44.7812	615.6041	-0.2733	1.6151	-0.069371	0.67212	0.45945	2.0713	-0.0592	0.0182	-0.0073	-0.0462	0.0165	0.9585
32.305	2.8533	858.3741	69.2288	-221.2923	-45.0353	622.7104	-0.043002	1.0743	0.015147	0.43016	0.33702	1.7826	-0.0592	0.0182	-0.0073	-0.0462	0.0165	0.9585
32.3229	4.1148	863.5996	69.7061	-222.3106	-44.4408	623.7184	0.053012	0.67856	0.067065	0.25284	0.25897	1.5139	-0.0592	0.0182	-0.0073	-0.0462	0.0165	0.9585
32.3407	6.0687	860.1056	69.2769	-221.1548	-43.0214	618.093	0.0524	0.24599	0.096612	0.061192	0.22236	1.1563	-0.0592	0.0182	-0.0073	-0.0462	0.0165	0.9585
32.3586	8.5851	848.0803	67.9738	-217.8826	-40.8671	606.0728	-0.0047038	-0.39953	0.11903	-0.22152	0.21045	0.58915	-0.0592	0.0182	-0.0073	-0.0462	0.0165	0.9585
32.3764	11.5585	828.8218	65.9308	-212.8355	-38.1265	588.6625	-0.078001	-1.413	0.15458	-0.66323	0.19298	-0.30258	-0.0592	0.0182	-0.0073	-0.0462	0.0165	0.9585
32.3943	14.9319	804.5892	63.3715	-206.6002	-34.9913	567.4945	-0.12597	-2.8996	0.22151	-1.3093	0.1369	-1.599	-0.0592	0.0182	-0.0073	-0.0462	0.0165	0.9585
32.4121	18.6859	778.2265	60.5844	-199.9099	-31.6778	544.5633	-0.10123	-4.874	0.3337	-2.1649	0.0081823	-3.3086	-0.0592	0.0182	-0.0073	-0.0462	0.0165	0.9585
32.43	22.8308	752.6779	57.8741	-193.5188	-28.3897	521.8992	0.049101	-7.206	0.49961	-3.1721	-0.22147	-5.3206	-0.0592	0.0182	-0.0073	-0.0462	0.0165	0.9585
32.4479	27.3727	730.5174	55.5151	-188.079	-25.2978	501.2666	0.38099	-9.5486	0.71862	-4.1795	-0.57532	-7.3447	-0.0592	0.0182	-0.0073	-0.0462	0.0165	0.9585
32.4657	32.2663	713.522	53.7181	-184.0311	-22.5358	483.907	0.9541	-11.2576	0.97857	-4.9086	-1.0655	-8.8509	-0.0592	0.0182	-0.0073	-0.0462	0.0165	0.9585
32.4836	37.3898	702.3492	52.597	-181.5186	-20.1891	470.3409	1.8184	-11.3091	1.2483	-4.9166	-1.6834	-8.991	-0.0592	0.0182	-0.0073	-0.0462	0.0165	0.9585
32.5014	42.5517	696.4065	52.1544	-180.3535	-18.2921	460.2917	2.9905	-8.2399	1.4617	-3.571	-2.3777	-6.5442	-0.0592	0.0182	-0.0073	-0.0462	0.0165	0.9585
32.5193	47.48	693.9035	52.2991	-180.0331	-16.8507	452.7446	4.4215	-0.1558	1.5083	-0.052239	-3.0277	0.078136	-0.0592	0.0182	-0.0073	-0.0462	0.0165	0.9585
32.5371	51.8363	692.1207	52.8609	-179.813	-15.8501	446.1276	5.9504	15.1463	1.2264	6.5908	-3.4204	12.731	-0.0592	0.0182	-0.0073	-0.0462	0.0165	0.9585
32.555	55.2736	687.8594	53.5849	-178.8293	-15.2377	438.5805	7.2459	39.8696	0.40104	17.3073	-3.2263	33.2835	-0.0592	0.0182	-0.0073	-0.0462	0.0165	0.9585
32.5729	57.4733	677.933	54.1367	-176.2364	-14.9146	428.2554	7.6989	75.6919	-1.2279	32.8171	-1.9631	63.1793	-0.0592	0.0182	-0.0073	-0.0462	0.0165	0.9585
32.5907	58.171	659.6271	54.1248	-171.3334	-14.7337	413.5915	6.2622	123.0121	-3.9156	53.2842	1.027	102.8125	-0.0592	0.0182	-0.0073	-0.0462	0.0165	0.9585
32.6086	57.2077	631.1452	53.1444	-163.6821	-14.506	393.5636	1.927	180.274	-7.8594	78.0204	6.3313	150.9609	-0.0592	0.0182	-0.0073	-0.0462	0.0165	0.9585
32.6264	54.5962	592.0697	50.8742	-153.221	-14.0375	367.9301	-5.0889	243.9705	-13.1168	105.4861	13.8965	204.7071	-0.0592	0.0182	-0.0073	-0.0462	0.0165	0.9585
32.6443	50.559	543.6104	47.1931	-140.3199	-13.1887	337.3614	-13.6212	309.2937	-19.3705	133.6091	22.9427	259.8795	-0.0592	0.0182	-0.0073	-0.0462	0.0165	0.9585
32.6621	45.5551	488.6022	42.2499	-125.7687	-11.9062	303.4292	-22.2872	372.4383	-25.7731	160.7794	32.126	313.078	-0.0592	0.0182	-0.0073	-0.0462	0.0165	0.9585
32.68	40.1756	430.9149	36.4494	-110.6129	-10.2429	268.2707	-29.9549	431.1266	-31.468	186.0484	40.2185	362.2489	-0.0592	0.0182	-0.0073	-0.0462	0.0165	0.9585
32.6979	34.9006	374.3326	30.3347	-95.851	-8.3571	233.9786	-35.707	483.2485	-35.8709	208.533	46.3436	405.5225	-0.0592	0.0182	-0.0073	-0.0462	0.0165	0.9585
32.7157	29.9988	321.6904	24.4623	-82.2055	-6.4736	202.127	-38.9358	526.7811	-38.7171	227.3673	50.039	441.1403	-0.0592	0.0182	-0.0073	-0.0462	0.0165	0.9585
32.7336	25.5691	274.5408	19.2576	-70.0461	-4.7925	173.5706	-39.4946	560.541	-40.1393	242.0214	51.3799	468.129	-0.0592	0.0182	-0.0073	-0.0462	0.0165	0.9585
32.7514	21.6033	233.277	14.9404	-59.4372	-3.4382	148.4961	-37.7366	584.8019	-40.5474	252.5823	50.8877	486.8191	-0.0592	0.0182	-0.0073	-0.0462	0.0165	0.9585
32.7693	18.0188	197.5156	11.5417	-50.2513	-2.4554	126.6463	-34.3656	601.364	-40.406	259.805	49.2723	498.8519	-0.0592	0.0182	-0.0073	-0.0462	0.0165	0.9585
32.7871	14.7178	166.5396	8.9874	-42.2864	-1.8413	107.5754	-30.1848	612.981	-40.0923	264.8746	47.1985	506.6574	-0.0592	0.0182	-0.0073	-0.0462	0.0165	0.9585
32.805	11.6213	139.6306	7.1641	-35.3507	-1.5683	90.8491	-25.9005	622.5436	-39.8573	269.0485	45.1706	512.7463	-0.0592	0.0182	-0.0073	-0.0462	0.0165	0.9585
32.8229	8.6931	116.1975	5.9413	-29.2956	-1.5858	76.1204	-22.0276	632.343	-39.8615	273.3285	43.5235	519.0881	-0.0592	0.0182	-0.0073	-0.0462	0.0165	0.9585
32.8407	5.9466	95.7551	5.1696	-24.0095	-1.8171	63.1105	-18.8434	643.6102	-40.1924	278.2518	42.4245	526.7313	-0.0592	0.0182	-0.0073	-0.0462	0.0165	0.9585
32.8586	3.4201	77.8811	4.6895	-19.4	-2.166	51.5881	-16.381	656.4405	-40.8735	283.8529	41.8827	535.7551	-0.0592	0.0182	-0.0073	-0.0462	0.0165	0.9585
32.8764	1.1498	62.2026	4.3478	-15.3839	-2.531	41.3682	-14.4926	670.037	-41.8628	289.7729	41.7808	545.4922	-0.0592	0.0182	-0.0073	-0.0462	0.0165	0.9585
32.8943	-0.81793	48.4185	4.0171	-11.8888	-2.8222	32.3103	-12.9665	683.1207	-43.0804	295.4409	41.9522	554.8979	-0.0592	0.0182	-0.0073	-0.0462	0.0165	0.9585
32.9121	-2.3884	36.3313	3.6091	-8.8616	-2.9631	24.327	-11.6387	694.3677	-44.441	300.2681	42.2577	562.9287	-0.0592	0.0182	-0.0073	-0.0462	0.0165	0.9585
32.93	-3.4275	25.8709	3.0813	-6.2768	-2.8969	17.4032	-10.4487	702.7943	-45.863	303.8189	42.6157	568.8556	-0.0592	0.0182	-0.0073	-0.0462	0.0165	0.9585
32.9479	-3.8218	17.0848	2.4479	-4.1355	-2.6044	11.5869	-9.451	708.0567	-47.2643	305.9423	42.9986	572.4854	-0.0592	0.0182	-0.0073	-0.0462	0.0165	0.9585
32.9657	-3.586	10.0839	1.778	-2.4521	-2.129	6.9528	-8.8029	710.6755	-48.5497	306.8705	43.4173	574.3108	-0.0592	0.0182	-0.0073	-0.0462	0.0165	0.9585
32.9836	-2.962	4.9381	1.1692	-1.231	-1.5907	3.5529	-8.694	712.0031	-49.6342	307.2036	43.9027	575.4576	-0.0592	0.0182	-0.0073	-0.0462	0.0165	0.9585
33.0014	-2.2158	1.5074	0.67776	-0.42884	-1.0893	1.2977	-9.2499	713.9097	-50.4748	307.7716	44.4841	577.41	-0.0592	0.0182	-0.0073	-0.0462	0.0165	0.9585
33.0193	-1.512	-0.51483	0.31533	0.035199	-0.6738	-0.02786	-10.4917	718.3557	-51.0647	309.4397	45.1731	581.6623	-0.0592	0.0182	-0.0073	-0.0462	0.0165	0.9585
33.0371	-0.93401	-1.4877	0.06835	0.25066	-0.3601	-0.66765	-12.3444	726.8932	-51.4317	312.8902	45.9703	589.3395	-0.0592	0.0182	-0.0073	-0.0462	0.0165	0.9585
33.055	-0.50806	-1.7552	-0.087699	0.30065	-0.14149	-0.8376	-14.668	740.3173	-51.6226	318.4744	46.8654	600.9361	-0.0592	0.0182	-0.0073	-0.0462	0.0165	0.9585
33.0729	-0.22728	-1.5939	-0.17876	0.25249	-0.0010509	-0.71639	-17.2672	758.5846	-51.6822	326.1784	47.8202	616.2614	-0.0592	0.0182	-0.0073	-0.0462	0.0165	0.9585
33.0907	-0.065374	-1.2079	-0.2278	0.15632	0.080467	-0.44268	-19.8969	780.9029	-51.6356	335.6636	48.7532	634.5228	-0.0592	0.0182	-0.0073	-0.0462	0.0165	0.9585
33.1086	0.0087865	-0.74176	-0.25347	0.047036	0.12205	-0.11095	-22.2829	805.902	-51.4738	346.3411	49.5385	654.4786	-0.0592	0.0182	-0.0073	-0.0462	0.0165	0.9585
33.1264	0.023023	-0.29063	-0.26815	-0.054123	0.13853	0.21229	-24.1565	831.8136	-51.1575	357.4472	50.0235	674.6016	-0.0592	0.0182	-0.0073	-0.0462	0.0165	0.9585
33.1443	-0.00064947	0.084875	-0.27966	-0.13431	0.14073	0.48394	-25.2969	856.6486	-50.6354	368.1166	50.0589	693.2417	-0.0592	0.0182	-0.0073	-0.0462	0.0165	0.9585
33.1621	-0.046045	0.34241	-0.29015	-0.18492	0.13353	0.67693	-25.5602	878.3623	-49.8726	377.4526	49.5357	708.7725	-0.0592	0.0182	-0.0073	-0.0462	0.0165	0.9585
33.18	-0.10768	0.44415	-0.29838	-0.19621	0.11864	0.75927	-24.8943	895.0115	-48.8562	384.5948	48.4002	719.7184	-0.0592	0.0182	-0.0073	-0.0462	0.0165	0.9585
33.1979	-0.18511	0.34715	-0.30542	-0.15434	0.098548	0.68219	-23.3207	904.9639	-47.6073	388.8117	46.6602	724.9079	-0.0592	0.0182	-0.0073	-0.0462	0.0165	0.9585
33.2157	-0.27916	0.0024091	-0.31364	-0.041275	0.076959	0.38628	-20.9232	907.091	-46.1803	389.5891	44.3815	723.6009	-0.0592	0.0182	-0.0073	-0.0462	0.0165	0.9585
33.2336	-0.38424	-0.64749	-0.32855	0.16386	0.061368	-0.19149	-17.8205	900.8683	-44.6614	386.6778	41.6758	715.5419	-0.0592	0.0182	-0.0073	-0.0462	0.0165	0.9585
33.2514	-0.48685	-1.6569	-0.35753	0.4811	0.061378	-1.1132	-14.1419	886.4265	-43.1674	380.1219	38.6913	700.9704	-0.0592	0.0182	-0.0073	-0.0462	0.0165	0.9585
33.2693	-0.56037	-3.0512	-0.40844	0.92048	0.090132	-2.4124	-10.0235	864.5527	-41.8264	370.2632	35.5983	680.5974	-0.0592	0.0182	-0.0073	-0.0462	0.0165	0.9585
33.2871	-0.56218	-4.7822	-0.48531	1.4715	0.16461	-4.0505	-5.6004	836.5971	-40.7508	357.707	32.5656	655.524	-0.0592	0.0182	-0.0073	-0.0462	0.0165	0.9585
33.305	-0.42951	-6.6855	-0.58112	2.0839	0.29861	-5.8753	-0.98963	804.3678	-40.0083	343.276	29.728	627.161	-0.0592	0.0182	-0.0073	-0.0462	0.0165	0.9585
33.3229	-0.074792	-8.4144	-0.67382	2.644	0.49873	-7.5645	3.7042	770.0122	-39.5941	327.9525	27.1583	597.1533	-0.0592	0.0182	-0.0073	-0.0462	0.0165	0.9585
